<svg xmlns="http://www.w3.org/2000/svg" id="No_Data" width="146.049" height="118.999" data-name="No Data" viewBox="0 0 146.049 118.999">
    <defs>
        <style>
            .cls-1,.cls-7{fill:#ed4e67}.cls-1{opacity:.15}.cls-10,.cls-2,.cls-3,.cls-4,.cls-6{fill:#f7657d;isolation:isolate}.cls-2{opacity:.429}.cls-3{opacity:.418}.cls-4{opacity:.369}.cls-5{fill:#bf2640}.cls-6{opacity:.25}.cls-8{fill:#bf263f}.cls-9{fill:#fff}.cls-10{opacity:.2}
        </style>
    </defs>
    <g id="Group_6942" data-name="Group 6942" transform="translate(13.577)">
        <path id="Rectangle_1795" d="M126.519 568.521l27.908 29.279a19.813 19.813 0 0 1-.946 28.352l-29.8 27.423a20.67 20.67 0 0 1-28.854-.93l-27.908-29.279a19.813 19.813 0 0 1 .946-28.352l29.8-27.423a20.67 20.67 0 0 1 28.854.93z" class="cls-1" data-name="Rectangle 1795" transform="translate(-54.15 -547.891)"/>
        <path id="Path_4885" d="M154.169 663.253a2.642 2.642 0 0 1-2.628-2.295 2.572 2.572 0 0 1 .531-1.915 2.662 2.662 0 0 1 4.731 1.276 2.573 2.573 0 0 1-.532 1.915 2.633 2.633 0 0 1-1.777 1 2.752 2.752 0 0 1-.325.019zm0-4.144a1.588 1.588 0 0 0-.193.012 1.556 1.556 0 0 0-1.052.59 1.491 1.491 0 0 0-.31 1.113 1.578 1.578 0 0 0 2.8.742 1.494 1.494 0 0 0 .309-1.112 1.557 1.557 0 0 0-1.551-1.345z" class="cls-2" data-name="Path 4885" transform="translate(-54.15 -547.891)"/>
        <path id="Path_4886" d="M69.59 666.89l.105-4.468-3.7-2.63 4.376-1.289 1.39-4.26 2.587 3.669 4.564-.007-2.767 3.567 1.42 4.257-4.3-1.477zm-1.148-6.69l2.351 1.669-.067 2.867 2.359-1.694 2.753.946-.909-2.725 1.762-2.271h-2.908l-1.665-2.362-.9 2.747z" class="cls-3" data-name="Path 4886" transform="translate(-54.15 -547.891)"/>
        <path id="Path_4887" d="M150.6 564.638l-.783-3.146-3.1-1.167 2.824-1.713.164-3.238 2.512 2.1 3.195-.857-1.254 3.014 1.81 2.731-3.3-.243zm-1.414-4.543l1.546.582.4 1.6 1.053-1.284 1.655.121-.907-1.368.629-1.513-1.608.431-1.277-1.064-.083 1.642z" class="cls-4" data-name="Path 4887" transform="translate(-54.15 -547.891)"/>
        <path id="Path_4888" d="M67.145 570.081a4.133 4.133 0 0 1-4.113-3.586 4.011 4.011 0 0 1 .829-2.99 4.167 4.167 0 0 1 7.4 1.991 4.017 4.017 0 0 1-.829 2.991 4.2 4.2 0 0 1-3.291 1.594zm.005-7.086a3.182 3.182 0 0 0-.376.022 3.056 3.056 0 0 0-2.058 1.156 2.938 2.938 0 0 0-.608 2.187 3.083 3.083 0 0 0 5.473 1.459 2.939 2.939 0 0 0 .608-2.188 3.047 3.047 0 0 0-3.039-2.636z" class="cls-2" data-name="Path 4888" transform="translate(-54.15 -547.891)"/>
        <path id="Path_4889" d="M56.8 576.5a2.642 2.642 0 0 1-2.629-2.295 2.579 2.579 0 0 1 .531-1.915 2.664 2.664 0 0 1 4.732 1.276 2.568 2.568 0 0 1-.532 1.915 2.639 2.639 0 0 1-1.777 1 2.749 2.749 0 0 1-.325.019zm0-4.144a1.588 1.588 0 0 0-.193.012 1.563 1.563 0 0 0-1.052.59 1.494 1.494 0 0 0-.31 1.113 1.577 1.577 0 0 0 2.8.743 1.492 1.492 0 0 0 .31-1.113 1.557 1.557 0 0 0-1.555-1.345z" class="cls-2" data-name="Path 4889" transform="translate(-54.15 -547.891)"/>
        <path id="Path_4890" d="M153.684 577.081a3.567 3.567 0 0 1-2.8-1.357 3.418 3.418 0 0 1-.706-2.546 3.549 3.549 0 0 1 6.3-1.7 3.422 3.422 0 0 1 .706 2.546 3.52 3.52 0 0 1-3.5 3.057zm0-6.033a2.592 2.592 0 0 0-2.586 2.244 2.5 2.5 0 0 0 .517 1.863 2.624 2.624 0 0 0 4.659-1.242 2.5 2.5 0 0 0-.517-1.862 2.6 2.6 0 0 0-1.752-.983 2.686 2.686 0 0 0-.325-.02z" class="cls-2" data-name="Path 4890" transform="translate(-54.15 -547.891)"/>
        <path id="Path_4891" d="M164.648 581.5a2.732 2.732 0 0 1-.324-.019 2.639 2.639 0 0 1-1.778-1 2.577 2.577 0 0 1-.532-1.915 2.663 2.663 0 0 1 4.731-1.276 2.575 2.575 0 0 1 .53 1.916 2.641 2.641 0 0 1-2.627 2.294zm-1.557-2.8a1.5 1.5 0 0 0 .31 1.113 1.578 1.578 0 0 0 2.8-.742 1.5 1.5 0 0 0-.309-1.114 1.578 1.578 0 0 0-2.8.743z" class="cls-2" data-name="Path 4891" transform="translate(-54.15 -547.891)"/>
        <path id="Path_4892" d="M118.456 658.2a.49.49 0 0 1-.009-.98 20.413 20.413 0 0 0 1.908-.126.49.49 0 0 1 .111.974c-.665.075-1.339.12-2 .132zm-1.959-.057h-.038a20.822 20.822 0 0 1-1.991-.25.49.49 0 1 1 .169-.965c.625.109 1.264.189 1.9.237a.49.49 0 0 1-.037.979zm5.847-.385a.49.49 0 0 1-.1-.97 19.973 19.973 0 0 0 1.852-.483.49.49 0 0 1 .292.936c-.634.2-1.287.368-1.941.506a.443.443 0 0 1-.103.013zm-9.7-.286a.491.491 0 0 1-.131-.018 21.026 21.026 0 0 1-1.907-.625.49.49 0 0 1 .35-.916c.593.227 1.2.427 1.817.6a.49.49 0 0 1-.129.963zm13.44-.882a.49.49 0 0 1-.19-.942 20.062 20.062 0 0 0 1.725-.824.49.49 0 0 1 .465.863c-.585.315-1.194.606-1.81.865a.5.5 0 0 1-.193.04zm-17.1-.513a.484.484 0 0 1-.217-.052q-.528-.262-1.049-.556l-.695-.4a.49.49 0 1 1 .483-.852l.695.394q.5.281 1 .531a.491.491 0 0 1-.219.93zm20.546-1.342a.491.491 0 0 1-.273-.9 19.488 19.488 0 0 0 1.535-1.14.49.49 0 0 1 .622.757c-.512.421-1.054.824-1.611 1.2a.491.491 0 0 1-.275.085zm-23.971-.564a.5.5 0 0 1-.242-.064l-1.705-.968a.49.49 0 0 1 .484-.853l1.705.968a.491.491 0 0 1-.242.917zm27-1.922a.49.49 0 0 1-.346-.837c.449-.449.88-.926 1.283-1.418a.491.491 0 0 1 .759.622 20.467 20.467 0 0 1-1.349 1.489.488.488 0 0 1-.353.146zm-30.407-.013a.489.489 0 0 1-.241-.064l-1.705-.968a.49.49 0 1 1 .483-.852l1.705.967a.49.49 0 0 1-.242.917zm-3.41-1.935a.478.478 0 0 1-.241-.064l-1.705-.967a.49.49 0 1 1 .483-.853l1.7.968a.49.49 0 0 1-.242.916zm36.3-1.082a.49.49 0 0 1-.408-.762q.311-.466.6-.954l.409-.7a.49.49 0 1 1 .844.5l-.408.7q-.3.512-.627 1a.491.491 0 0 1-.416.218zm-39.71-.852a.5.5 0 0 1-.242-.064l-1.705-.968a.49.49 0 0 1 .484-.852l1.705.967a.491.491 0 0 1-.242.917zm-3.41-1.935a.489.489 0 0 1-.242-.064l-1.705-.967a.49.49 0 0 1 .484-.853l1.7.967a.491.491 0 0 1-.242.917zm45.134-.576a.49.49 0 0 1-.423-.738l.993-1.69a.49.49 0 0 1 .846.5l-.993 1.69a.488.488 0 0 1-.429.24zM88.5 644.5a.478.478 0 0 1-.241-.064l-1.705-.967a.49.49 0 1 1 .483-.852l1.706.967a.49.49 0 0 1-.243.916zm-3.41-1.934a.489.489 0 0 1-.241-.064l-1.706-.968a.49.49 0 1 1 .484-.852l1.7.967a.491.491 0 0 1-.242.917zm53.941-.088a.489.489 0 0 1-.422-.738l.993-1.69a.49.49 0 1 1 .845.5l-.994 1.69a.488.488 0 0 1-.417.237zm-57.346-1.848a.5.5 0 0 1-.242-.064l-1.705-.967a.49.49 0 0 1 .484-.853l1.705.967a.491.491 0 0 1-.242.917zm59.337-1.533a.485.485 0 0 1-.248-.068.49.49 0 0 1-.174-.671l.993-1.69a.49.49 0 0 1 .845.5l-.993 1.69a.488.488 0 0 1-.423.242zm-62.748-.4a.478.478 0 0 1-.241-.064l-1.7-.967a.49.49 0 0 1 .484-.853l1.705.968a.49.49 0 0 1-.243.916zm-3.41-1.934a.489.489 0 0 1-.241-.064l-1.706-.968a.49.49 0 1 1 .484-.852l1.705.967a.49.49 0 0 1-.242.917zm68.144-1.044a.482.482 0 0 1-.247-.068.49.49 0 0 1-.175-.671l.994-1.69a.489.489 0 1 1 .844.5l-.993 1.691a.49.49 0 0 1-.423.236zm-71.522-.944a.488.488 0 0 1-.274-.084c-.556-.376-1.1-.78-1.608-1.2a.49.49 0 0 1 .625-.756c.486.4 1 .788 1.532 1.145a.491.491 0 0 1-.275.9zm73.509-2.437a.49.49 0 0 1-.422-.738l.993-1.69a.49.49 0 1 1 .845.5l-.994 1.69a.487.487 0 0 1-.422.236zm-76.526-.057a.492.492 0 0 1-.348-.145c-.47-.473-.922-.975-1.344-1.492a.49.49 0 0 1 .76-.62c.4.493.832.971 1.279 1.421a.491.491 0 0 1-.347.836zM66 629.243a.494.494 0 0 1-.41-.22 20.334 20.334 0 0 1-1.024-1.728.49.49 0 0 1 .867-.458c.3.563.625 1.117.975 1.645a.491.491 0 0 1-.408.761zm80.985-.288a.484.484 0 0 1-.248-.067.491.491 0 0 1-.174-.671l.993-1.69a.49.49 0 0 1 .845.5l-.993 1.69a.491.491 0 0 1-.427.238zm-82.818-3.175a.489.489 0 0 1-.454-.305 20.043 20.043 0 0 1-.665-1.895.49.49 0 1 1 .939-.278c.181.61.394 1.217.633 1.8a.49.49 0 0 1-.268.639.5.5 0 0 1-.185.039zm84.8-.205a.482.482 0 0 1-.247-.068.489.489 0 0 1-.175-.67l.993-1.69a.49.49 0 0 1 .845.5l-.993 1.69a.488.488 0 0 1-.423.238zm1.986-3.38a.482.482 0 0 1-.247-.068.49.49 0 0 1-.175-.671l.993-1.69a.49.49 0 0 1 .845.5l-.993 1.691a.491.491 0 0 1-.423.243zm-87.9-.168a.49.49 0 0 1-.481-.4 20.227 20.227 0 0 1-.279-1.988.49.49 0 1 1 .977-.088c.057.635.146 1.272.265 1.892a.492.492 0 0 1-.482.582zm89.883-3.213a.49.49 0 0 1-.421-.738l.993-1.69a.489.489 0 1 1 .844.5l-.993 1.69a.488.488 0 0 1-.42.238zm-90.231-.685H62.7a.49.49 0 0 1-.485-.5c.008-.666.049-1.341.123-2a.5.5 0 0 1 .542-.433.49.49 0 0 1 .433.541 19.078 19.078 0 0 0-.117 1.907.491.491 0 0 1-.488.485zm92.218-2.7a.49.49 0 0 1-.422-.738l.993-1.691c.137-.232.267-.465.392-.7a.49.49 0 1 1 .865.461q-.2.37-.413.735l-.992 1.69a.49.49 0 0 1-.42.248zm-91.781-1.2a.451.451 0 0 1-.1-.011.489.489 0 0 1-.376-.582 19.9 19.9 0 0 1 .521-1.94.49.49 0 0 1 .933.3 18.786 18.786 0 0 0-.5 1.844.491.491 0 0 1-.475.399zm94.014-2.984a.49.49 0 0 1-.453-.677 19.25 19.25 0 0 0 .64-1.8.49.49 0 0 1 .939.282 20.258 20.258 0 0 1-.673 1.892.49.49 0 0 1-.45.313zm-92.81-.74a.49.49 0 0 1-.448-.687 20.038 20.038 0 0 1 .895-1.8.49.49 0 1 1 .854.48c-.311.555-.6 1.131-.852 1.711a.49.49 0 0 1-.446.306zm93.936-3.009a.435.435 0 0 1-.094-.01.489.489 0 0 1-.387-.574 19.009 19.009 0 0 0 .267-1.89.5.5 0 0 1 .533-.445.492.492 0 0 1 .444.533 20.082 20.082 0 0 1-.282 1.989.491.491 0 0 1-.478.407zm-92.073-.437a.49.49 0 0 1-.422-.738l.993-1.69a.49.49 0 1 1 .845.5l-.993 1.69a.49.49 0 0 1-.42.248zm1.986-3.38a.482.482 0 0 1-.247-.068.489.489 0 0 1-.175-.67l.993-1.691a.49.49 0 1 1 .845.5l-.992 1.691a.493.493 0 0 1-.419.248zm90.44-.081a.491.491 0 0 1-.49-.486 18.743 18.743 0 0 0-.115-1.906.49.49 0 0 1 .975-.108c.073.665.114 1.339.12 2.005a.49.49 0 0 1-.485.495zm-88.454-3.3a.482.482 0 0 1-.247-.068.49.49 0 0 1-.175-.671l.993-1.69a.49.49 0 1 1 .845.5l-.993 1.69a.489.489 0 0 1-.42.25zm88.025-.591a.49.49 0 0 1-.479-.388 20.39 20.39 0 0 0-.489-1.847.49.49 0 1 1 .933-.3c.2.635.376 1.288.515 1.941a.49.49 0 0 1-.377.581.454.454 0 0 1-.1.024zm-86.039-2.79a.49.49 0 0 1-.421-.739l.993-1.69a.49.49 0 1 1 .844.5l-.993 1.69a.49.49 0 0 1-.42.25zm84.85-.939a.491.491 0 0 1-.45-.3 19.327 19.327 0 0 0-.844-1.715.49.49 0 1 1 .857-.476c.324.583.622 1.189.887 1.8a.49.49 0 0 1-.256.644.476.476 0 0 1-.191.058zm-82.863-2.442a.49.49 0 0 1-.422-.738l.993-1.69a.49.49 0 1 1 .845.5l-.993 1.69a.491.491 0 0 1-.42.249zm80.964-.982a.488.488 0 0 1-.4-.211 19.662 19.662 0 0 0-1.165-1.516.49.49 0 0 1 .747-.634 20.06 20.06 0 0 1 1.223 1.592.49.49 0 0 1-.4.769zm-78.978-2.4a.482.482 0 0 1-.247-.068.489.489 0 0 1-.175-.67l.993-1.691a.49.49 0 0 1 .845.5l-.993 1.691a.49.49 0 0 1-.42.251zm76.441-.585a.488.488 0 0 1-.34-.138c-.456-.44-.941-.864-1.44-1.26a.49.49 0 1 1 .609-.768 20.71 20.71 0 0 1 1.512 1.323.49.49 0 0 1-.341.843zm-3.068-2.432a.488.488 0 0 1-.266-.079q-.484-.313-.992-.6l-.672-.381a.49.49 0 0 1 .484-.853l.672.382q.532.3 1.04.63a.49.49 0 0 1-.266.9zm-71.387-.363a.482.482 0 0 1-.247-.068.489.489 0 0 1-.174-.671l.993-1.69a.489.489 0 0 1 .844.5l-.993 1.69a.489.489 0 0 1-.42.252zm67.994-1.6a.485.485 0 0 1-.242-.064l-1.705-.967a.49.49 0 0 1 .484-.852l1.705.967a.49.49 0 0 1-.242.916zm-66.007-1.779a.49.49 0 0 1-.422-.738l.993-1.691a.49.49 0 0 1 .845.5l-.993 1.69a.49.49 0 0 1-.42.25zm62.6-.155a.489.489 0 0 1-.241-.064l-1.7-.967a.49.49 0 0 1 .484-.853l1.705.967a.491.491 0 0 1-.243.917zm-3.41-1.935a.478.478 0 0 1-.241-.064l-1.705-.967a.49.49 0 1 1 .483-.852l1.705.967a.49.49 0 0 1-.242.916zm-57.2-1.291a.49.49 0 0 1-.422-.738l.993-1.69a.49.49 0 1 1 .845.5l-.994 1.69a.488.488 0 0 1-.425.249zm53.79-.643a.5.5 0 0 1-.242-.064l-1.7-.967a.49.49 0 0 1 .484-.853l1.705.967a.491.491 0 0 1-.242.917zm-3.411-1.935a.478.478 0 0 1-.241-.064l-1.705-.968a.49.49 0 0 1 .484-.852l1.705.968a.49.49 0 0 1-.243.916zm-48.393-.8a.49.49 0 0 1-.422-.738l.993-1.691a.49.49 0 0 1 .845.5l-.993 1.691a.49.49 0 0 1-.424.247zm44.983-1.133a.478.478 0 0 1-.241-.064l-1.705-.967a.49.49 0 0 1 .483-.853l1.705.968a.49.49 0 0 1-.242.916zm-3.41-1.934a.489.489 0 0 1-.241-.064l-1.705-.968a.49.49 0 1 1 .483-.852l1.705.967a.49.49 0 0 1-.242.917zm-39.575-.306a.491.491 0 0 1-.413-.754 20.91 20.91 0 0 1 1.161-1.638.49.49 0 1 1 .771.606c-.393.5-.765 1.025-1.105 1.559a.49.49 0 0 1-.415.236zm36.165-1.629a.489.489 0 0 1-.241-.064l-1.706-.967a.49.49 0 0 1 .484-.853l1.7.967a.49.49 0 0 1-.242.917zM88.5 570.193a.49.49 0 0 1-.354-.829c.462-.482.953-.947 1.459-1.381a.49.49 0 1 1 .638.745c-.482.413-.95.855-1.389 1.313a.487.487 0 0 1-.354.152zm30.335-.485a.478.478 0 0 1-.241-.064l-1.705-.967a.49.49 0 1 1 .483-.852l1.706.967a.49.49 0 0 1-.243.916zm-3.41-1.934a.489.489 0 0 1-.241-.064l-1.705-.968a.49.49 0 1 1 .483-.852l1.7.967a.49.49 0 0 1-.242.917zm-23.951-.129a.491.491 0 0 1-.282-.892 20.574 20.574 0 0 1 1.7-1.07.49.49 0 0 1 .481.854c-.553.312-1.1.655-1.617 1.019a.49.49 0 0 1-.277.089zm20.513-1.753a.5.5 0 0 1-.209-.047 19.791 19.791 0 0 0-1.767-.731.49.49 0 0 1 .331-.923c.626.224 1.25.482 1.854.767a.49.49 0 0 1-.209.934zm-17.1-.172a.49.49 0 0 1-.2-.938c.61-.271 1.239-.515 1.871-.727a.49.49 0 0 1 .311.93c-.6.2-1.2.434-1.783.692a.486.486 0 0 1-.198.043zm13.421-1.15a.5.5 0 0 1-.121-.015 19.767 19.767 0 0 0-1.875-.381.49.49 0 0 1 .149-.969c.658.1 1.32.235 1.966.4a.491.491 0 0 1-.119.966zm-9.71-.092a.49.49 0 0 1-.11-.968c.65-.151 1.314-.272 1.973-.36a.49.49 0 1 1 .13.971c-.629.084-1.261.2-1.882.344a.469.469 0 0 1-.109.013zm5.84-.5h-.028q-.96-.055-1.912-.018a.506.506 0 0 1-.509-.47.49.49 0 0 1 .47-.509q1-.038 2.006.018a.49.49 0 0 1-.027.98z" class="cls-5" data-name="Path 4892" transform="translate(-54.15 -547.891)"/>
        <path id="Path_4893" d="M171.456 606.842a1.572 1.572 0 0 1-1.575-1.343 1.48 1.48 0 0 1 .308-1.11 1.605 1.605 0 0 1 2.843.733 1.484 1.484 0 0 1-.308 1.111 1.589 1.589 0 0 1-1.076.6 1.79 1.79 0 0 1-.192.009zm0-2.421a.935.935 0 0 0-.118.008.949.949 0 0 0-.645.355.846.846 0 0 0-.176.633.929.929 0 0 0 1.054.775.949.949 0 0 0 .645-.355.851.851 0 0 0 .177-.633.929.929 0 0 0-.935-.783z" class="cls-2" data-name="Path 4893" transform="translate(-54.15 -547.891)"/>
        <path id="Path_4894" d="M153.768 655.548a4.133 4.133 0 0 1-4.114-3.587 4.015 4.015 0 0 1 .829-2.99 4.168 4.168 0 0 1 7.4 1.992 4.015 4.015 0 0 1-.829 2.99 4.194 4.194 0 0 1-3.29 1.595zm0-7.086a3.215 3.215 0 0 0-.377.023 3.054 3.054 0 0 0-2.058 1.154 2.939 2.939 0 0 0-.608 2.188 3.083 3.083 0 0 0 5.473 1.458 2.938 2.938 0 0 0 .608-2.187 3.047 3.047 0 0 0-3.033-2.636z" class="cls-6" data-name="Path 4894" transform="translate(-54.15 -547.891)"/>
        <path id="Path_4895" d="M91.6 550.954a1.574 1.574 0 0 1-1.575-1.344 1.489 1.489 0 0 1 .309-1.111 1.606 1.606 0 0 1 2.843.734 1.489 1.489 0 0 1-.308 1.111 1.634 1.634 0 0 1-1.269.61zm0-2.421a1.157 1.157 0 0 0-.118.006.951.951 0 0 0-.644.356.847.847 0 0 0-.177.633.937.937 0 0 0 1.055.776.949.949 0 0 0 .644-.356.847.847 0 0 0 .177-.633.928.928 0 0 0-.937-.782z" class="cls-2" data-name="Path 4895" transform="translate(-54.15 -547.891)"/>
        <path id="Path_4896" d="M133.4 566.236a1.571 1.571 0 0 1-1.575-1.343 1.484 1.484 0 0 1 .307-1.11 1.606 1.606 0 0 1 2.844.733 1.485 1.485 0 0 1-.308 1.11 1.588 1.588 0 0 1-1.076.6 1.775 1.775 0 0 1-.192.01zm0-2.421a1 1 0 0 0-.763.364.844.844 0 0 0-.177.632.937.937 0 0 0 1.056.776.95.95 0 0 0 .644-.356.851.851 0 0 0 .176-.633.927.927 0 0 0-.936-.783z" class="cls-2" data-name="Path 4896" transform="translate(-54.15 -547.891)"/>
        <path id="Path_4897" d="M65.352 582.475a1.573 1.573 0 0 1-1.575-1.344 1.489 1.489 0 0 1 .308-1.111 1.606 1.606 0 0 1 2.843.734 1.485 1.485 0 0 1-.307 1.11 1.635 1.635 0 0 1-1.269.611zm0-2.421a.982.982 0 0 0-.763.362.85.85 0 0 0-.176.633.934.934 0 0 0 1.054.776.949.949 0 0 0 .645-.356.847.847 0 0 0 .177-.633.929.929 0 0 0-.935-.782z" class="cls-2" data-name="Path 4897" transform="translate(-54.15 -547.891)"/>
        <path id="Path_4898" d="M69.24 646.472a1.571 1.571 0 0 1-1.574-1.343 1.488 1.488 0 0 1 .307-1.111 1.605 1.605 0 0 1 2.843.734 1.487 1.487 0 0 1-.307 1.11 1.59 1.59 0 0 1-1.076.6 1.793 1.793 0 0 1-.193.01zm0-2.421a.933.933 0 0 0-.118.007.95.95 0 0 0-.646.356.851.851 0 0 0-.176.633.935.935 0 0 0 1.055.775.946.946 0 0 0 .644-.356.843.843 0 0 0 .177-.632.927.927 0 0 0-.933-.783z" class="cls-2" data-name="Path 4898" transform="translate(-54.15 -547.891)"/>
    </g>
    <g id="old" transform="translate(0 28.646)">
        <g id="Group_3921" data-name="Group 3921">
            <g id="Group_3918" data-name="Group 3918">
                <g id="Group_3914" data-name="Group 3914" transform="translate(34.189)">
                    <g id="Group_7784" data-name="Group 7784" transform="translate(.327)">
                        <path id="Rectangle_1234" d="M76.09 577.537h44.542c3.5 0 6.331 2.083 6.331 4.652v46.449H76.09v-51.1z" class="cls-7" data-name="Rectangle 1234" transform="translate(-75.089 -576.537)"/>
                        <path id="Path_4899" d="M127.962 629.638H75.089v-53.1h45.543c4.042 0 7.33 2.535 7.33 5.652zm-50.873-2h48.873v-45.449c0-1.98-2.441-3.652-5.33-3.652H77.089z" class="cls-8" data-name="Path 4899" transform="translate(-75.089 -576.537)"/>
                    </g>
                    <path id="Rectangle_1234-2" d="M76.09 580.779h44.542c3.5 0 6.331 1.747 6.331 3.9v38.959H76.09z" class="cls-8" data-name="Rectangle 1234-2" transform="translate(-74.762 -576.537)"/>
                    <g id="Group_7785" data-name="Group 7785" transform="translate(0 6.513)">
                        <rect id="Rectangle_1235" width="76.766" height="51.379" class="cls-9" data-name="Rectangle 1235" rx="10" transform="translate(.796 .796)"/>
                        <path id="Path_4900" d="M142.324 636.02H85.558a10.807 10.807 0 0 1-10.8-10.8v-31.374a10.807 10.807 0 0 1 10.8-10.8h56.766a10.808 10.808 0 0 1 10.8 10.8v31.379a10.807 10.807 0 0 1-10.8 10.795zm-56.766-51.378a9.213 9.213 0 0 0-9.2 9.2v31.379a9.214 9.214 0 0 0 9.2 9.2h56.766a9.215 9.215 0 0 0 9.2-9.2v-31.375a9.214 9.214 0 0 0-9.2-9.2z" class="cls-8" data-name="Path 4900" transform="translate(-74.762 -583.05)"/>
                    </g>
                    <path id="Subtraction_1" d="M145.741 634.626a9.969 9.969 0 0 0 1.582-5.4v-31.379a10.013 10.013 0 0 0-10-10H80.557a9.991 9.991 0 0 0-3.419.6 9.972 9.972 0 0 1 8.418-4.6h56.766a10 10 0 0 1 10 10v31.379a10 10 0 0 1-6.58 9.4z" class="cls-10" data-name="Subtraction 1" transform="translate(-74.762 -576.537)"/>
                </g>
                <g id="Group_3917" data-name="Group 3917" transform="translate(0 35.025)">
                    <g id="Group_3915" data-name="Group 3915" transform="translate(0 2.439)">
                        <path id="Path_4901" d="M63.679 625.285c-4.805 0-9.53-2.6-14.052-7.737l1.195-1.052c4.325 4.913 8.77 7.334 13.23 7.191 6.364-.2 10.656-5.658 10.7-5.713l1.261.971c-.191.249-4.772 6.1-11.893 6.333-.148.005-.295.007-.441.007z" class="cls-8" data-name="Path 4901" transform="translate(-40.573 -614.001)"/>
                        <path id="Path_4902" d="M46.616 618.309a13.539 13.539 0 0 1-6.043-1.613l.712-1.424C48.961 619.11 52.1 614.053 52.13 614l1.367.817a8.218 8.218 0 0 1-6.881 3.492z" class="cls-8" data-name="Path 4902" transform="translate(-40.573 -614.001)"/>
                    </g>
                    <g id="Group_3916" data-name="Group 3916" transform="translate(110.614)">
                        <path id="Path_4903" d="M163.521 622.849c-.146 0-.292 0-.439-.008-7.122-.235-11.7-6.083-11.9-6.332l1.261-.971c.042.055 4.335 5.51 10.7 5.712 4.429.147 8.9-2.277 13.23-7.19l1.195 1.052c-4.517 5.135-9.242 7.737-14.047 7.737z" class="cls-8" data-name="Path 4903" transform="translate(-151.187 -611.562)"/>
                        <path id="Path_4904" d="M180.58 615.872a8.212 8.212 0 0 1-6.879-3.49l1.365-.82c.128.21 3.223 5.087 10.843 1.272l.713 1.424a13.529 13.529 0 0 1-6.042 1.614z" class="cls-8" data-name="Path 4904" transform="translate(-151.187 -611.562)"/>
                    </g>
                </g>
            </g>
            <g id="Group_3919" data-name="Group 3919" transform="translate(54.85 57.955)">
                <path id="Path_4905" d="M130.533 654.243l-1.337-.864 2.623-4.061c-3.812-.732-16.319-3.186-27.747-6.032-5.4-1.344-7.979-2.894-8.128-4.88-.173-2.3 3.163-3.755 3.544-3.914l.613 1.469c-1.074.451-2.633 1.5-2.57 2.326.032.414.625 1.885 6.926 3.454 13.566 3.379 28.668 6.2 28.818 6.233l1.167.218z" class="cls-8" data-name="Path 4905" transform="translate(-95.423 -634.492)"/>
                <path id="Path_4906" d="M99.332 654.243l-3.909-6.051 1.166-.218c.151-.028 15.255-2.854 28.819-6.233 6.3-1.569 6.893-3.041 6.925-3.454.068-.911-1.737-1.978-2.571-2.325l.613-1.47c.38.159 3.718 1.617 3.545 3.914-.15 1.986-2.732 3.536-8.127 4.88-11.426 2.846-23.935 5.3-27.748 6.032l2.624 4.061z" class="cls-8" data-name="Path 4906" transform="translate(-95.423 -634.492)"/>
            </g>
            <g id="Group_3920" data-name="Group 3920" transform="translate(51.582 19.293)">
                <g id="Group_7786" data-name="Group 7786">
                    <path id="Path_2896" d="M92.951 596.634c0-.247 3.517 9.064 12.582 0" class="cls-9" data-name="Path 2896" transform="translate(-92.155 -595.83)"/>
                    <path id="Path_4907" d="M98.32 601.4a5.747 5.747 0 0 1-.882-.067c-1.45-.223-3.514-1.132-5.11-4.2l.635-.47-.009-.036h-.8l.608-.778a.834.834 0 0 1 .977.548c1.288 2.474 2.854 3.193 3.941 3.36 2.066.317 4.52-.925 7.289-3.693l1.131 1.136c-2.8 2.793-5.412 4.2-7.78 4.2z" class="cls-8" data-name="Path 4907" transform="translate(-92.155 -595.83)"/>
                </g>
                <g id="Group_7787" data-name="Group 7787" transform="translate(29.477)">
                    <path id="Path_2897" d="M134.777 596.634c0-.247-3.517 9.064-12.582 0" class="cls-9" data-name="Path 2897" transform="translate(-121.632 -595.83)"/>
                    <path id="Path_4908" d="M129.408 601.4c-2.369 0-4.98-1.411-7.776-4.207l1.126-1.126c2.768 2.767 5.215 4.01 7.289 3.693 1.086-.167 2.652-.886 3.94-3.36a.836.836 0 0 1 .977-.548l.608.778h-.79l.663.419c-1.642 3.152-3.706 4.061-5.156 4.284a5.735 5.735 0 0 1-.881.067zm4.572-4.77z" class="cls-8" data-name="Path 4908" transform="translate(-121.632 -595.83)"/>
                </g>
                <path id="Path_2898" d="M115.34 618.3c0 2.062.54 5.355-1.321 3.757a4.558 4.558 0 0 1-1.78-3.733 4.3 4.3 0 0 1 1.78-3.734c2.441-1.728 1.321 1.645 1.321 3.71z" class="cls-8" data-name="Path 2898" transform="translate(-92.155 -595.83)"/>
            </g>
        </g>
    </g>
</svg>
